  0
SECTION
  2
HEADER
  9
$ACADVER
  1
AC1009
  9
$INSBASE
 10
0.0
 20
0.0
 30
0.0
  9
$EXTMIN
 10
0.0
 20
0.0
 30
0.0
  9
$EXTMAX
 10
0.0
 20
0.0
 30
0.0
  0
ENDSEC
  0
SECTION
  2
TABLES
  0
TABLE
  2
VPORT
 70
0
  0
ENDTAB
  0
TABLE
  2
LTYPE
 70
1
  0
LTYPE
  2
CONTINUOUS
 70
0
  3
Solid line
 72
65
 73
0
 40
0.0
  0
ENDTAB
  0
TABLE
  2
LAYER
 70
1
  0
LAYER
  2
0
 70
64
 62
7
  6
continuous
  0
ENDTAB
  0
TABLE
  2
STYLE
 70
1
  0
STYLE
  2
STANDARD
 70
0
 40
0
 41
1.0
 50
0.0
 71
0
 42
1
 3
ARIAL.TTF
 4

  0
ENDTAB
  0
TABLE
  2
VIEW
 70
0
  0
ENDTAB
  0
ENDSEC
  0
SECTION
  2
BLOCKS
  0
BLOCK
  8
0
  2
FACEFEAT
 70
0
 10
0.0
 20
0.0
 30
0.0
  3
FACEFEAT
  0
ARC
  8
0
 62
0
 10
298.62499882701
 20
-23.63750117298
 30
0.0
 40
3.000001172987
 50
2.2410541793857964e-05
 51
89.99997759761652
  0
LINE
  8
0
 62
0
 10
18.875
 20
-20.6375
 30
0.0
 11
298.625
 21
-20.6375
 31
0.0
  0
LINE
  8
0
 62
0
 10
301.625
 20
-23.6375
 30
0.0
 11
301.625
 21
-131.9375
 31
0.0
  0
ARC
  8
0
 62
0
 10
18.875001172987
 20
-23.63750117298
 30
0.0
 40
3.000001172987
 50
90.00002240239279
 51
179.9999775894582
  0
LINE
  8
0
 62
0
 10
15.875
 20
-131.9375
 30
0.0
 11
15.875
 21
-23.637500000000003
 31
0.0
  0
ARC
  8
0
 62
0
 10
18.875001172987
 20
-131.937498827
 30
0.0
 40
3.000001172987
 50
-179.9999775894582
 51
-90.00002240238418
  0
LINE
  8
0
 62
0
 10
298.625
 20
-134.9375
 30
0.0
 11
18.875
 21
-134.9375
 31
0.0
  0
ARC
  8
0
 62
0
 10
298.62499882701
 20
-131.937498827
 30
0.0
 40
3.000001172987
 50
-89.9999775975503
 51
-2.2410541793857964e-05
  0
CIRCLE
  8
0
 62
0
 10
22.697173
 20
-125.388019
 30
0.0
 40
0.875
  0
CIRCLE
  8
0
 62
0
 10
27.777173
 20
-125.388019
 30
0.0
 40
1.9939
  0
CIRCLE
  8
0
 62
0
 10
32.857173
 20
-125.388019
 30
0.0
 40
0.875
  0
CIRCLE
  8
0
 62
0
 10
23.967173
 20
-122.848019
 30
0.0
 40
0.762
  0
CIRCLE
  8
0
 62
0
 10
30.317173
 20
-120.308019
 30
0.0
 40
0.762
  0
CIRCLE
  8
0
 62
0
 10
46.509673
 20
-125.388019
 30
0.0
 40
0.875
  0
CIRCLE
  8
0
 62
0
 10
51.589673
 20
-125.388019
 30
0.0
 40
1.9939
  0
CIRCLE
  8
0
 62
0
 10
47.779673
 20
-122.848019
 30
0.0
 40
0.762
  0
CIRCLE
  8
0
 62
0
 10
56.669673
 20
-125.388019
 30
0.0
 40
0.875
  0
CIRCLE
  8
0
 62
0
 10
70.322173
 20
-125.388019
 30
0.0
 40
0.875
  0
CIRCLE
  8
0
 62
0
 10
54.129673
 20
-120.308019
 30
0.0
 40
0.762
  0
CIRCLE
  8
0
 62
0
 10
75.402173
 20
-125.388019
 30
0.0
 40
1.9939
  0
CIRCLE
  8
0
 62
0
 10
80.482173
 20
-125.388019
 30
0.0
 40
0.875
  0
CIRCLE
  8
0
 62
0
 10
71.592173
 20
-122.848019
 30
0.0
 40
0.762
  0
CIRCLE
  8
0
 62
0
 10
77.942173
 20
-120.308019
 30
0.0
 40
0.762
  0
CIRCLE
  8
0
 62
0
 10
25.395923
 20
-113.323019
 30
0.0
 40
1.524
  0
CIRCLE
  8
0
 62
0
 10
49.208423
 20
-113.323019
 30
0.0
 40
1.524
  0
CIRCLE
  8
0
 62
0
 10
32.222173
 20
-106.338019
 30
0.0
 40
0.875
  0
CIRCLE
  8
0
 62
0
 10
37.302173
 20
-106.338019
 30
0.0
 40
1.9939
  0
CIRCLE
  8
0
 62
0
 10
42.382173
 20
-106.338019
 30
0.0
 40
0.875
  0
CIRCLE
  8
0
 62
0
 10
63.178423
 20
-106.338019
 30
0.0
 40
0.875
  0
CIRCLE
  8
0
 62
0
 10
68.258423
 20
-106.338019
 30
0.0
 40
1.9939
  0
CIRCLE
  8
0
 62
0
 10
73.338423
 20
-106.338019
 30
0.0
 40
0.875
  0
CIRCLE
  8
0
 62
0
 10
82.228423
 20
-106.338019
 30
0.0
 40
0.875
  0
CIRCLE
  8
0
 62
0
 10
87.308423
 20
-106.338019
 30
0.0
 40
1.9939
  0
CIRCLE
  8
0
 62
0
 10
96.833423
 20
-132.373018
 30
0.0
 40
1.524
  0
CIRCLE
  8
0
 62
0
 10
141.759673
 20
-125.388019
 30
0.0
 40
0.875
  0
CIRCLE
  8
0
 62
0
 10
146.839673
 20
-125.388019
 30
0.0
 40
1.9939
  0
CIRCLE
  8
0
 62
0
 10
151.919673
 20
-125.388019
 30
0.0
 40
0.875
  0
CIRCLE
  8
0
 62
0
 10
143.029673
 20
-122.848019
 30
0.0
 40
0.762
  0
CIRCLE
  8
0
 62
0
 10
149.379673
 20
-120.308019
 30
0.0
 40
0.762
  0
CIRCLE
  8
0
 62
0
 10
96.833423
 20
-117.133019
 30
0.0
 40
1.9939
  0
CIRCLE
  8
0
 62
0
 10
92.388423
 20
-106.338019
 30
0.0
 40
0.875
  0
CIRCLE
  8
0
 62
0
 10
101.278423
 20
-106.338019
 30
0.0
 40
0.875
  0
CIRCLE
  8
0
 62
0
 10
106.358423
 20
-106.338019
 30
0.0
 40
1.9939
  0
CIRCLE
  8
0
 62
0
 10
111.438423
 20
-106.338019
 30
0.0
 40
0.875
  0
CIRCLE
  8
0
 62
0
 10
120.328423
 20
-106.338019
 30
0.0
 40
0.875
  0
CIRCLE
  8
0
 62
0
 10
125.408423
 20
-106.338019
 30
0.0
 40
1.9939
  0
CIRCLE
  8
0
 62
0
 10
130.488423
 20
-106.338019
 30
0.0
 40
0.875
  0
CIRCLE
  8
0
 62
0
 10
139.378423
 20
-106.338019
 30
0.0
 40
0.875
  0
CIRCLE
  8
0
 62
0
 10
144.458423
 20
-106.338019
 30
0.0
 40
1.9939
  0
CIRCLE
  8
0
 62
0
 10
149.538423
 20
-106.338019
 30
0.0
 40
0.875
  0
CIRCLE
  8
0
 62
0
 10
33.492173
 20
-103.798019
 30
0.0
 40
0.762
  0
CIRCLE
  8
0
 62
0
 10
39.842173
 20
-101.258019
 30
0.0
 40
0.762
  0
CIRCLE
  8
0
 62
0
 10
25.395922
 20
-98.083019
 30
0.0
 40
1.9939
  0
CIRCLE
  8
0
 62
0
 10
49.208424
 20
-98.083019
 30
0.0
 40
1.9939
  0
CIRCLE
  8
0
 62
0
 10
64.448423
 20
-103.798019
 30
0.0
 40
0.762
  0
CIRCLE
  8
0
 62
0
 10
70.798423
 20
-101.258019
 30
0.0
 40
0.762
  0
CIRCLE
  8
0
 62
0
 10
83.498423
 20
-103.798019
 30
0.0
 40
0.762
  0
CIRCLE
  8
0
 62
0
 10
27.459673
 20
-87.288019
 30
0.0
 40
0.875
  0
CIRCLE
  8
0
 62
0
 10
32.539673
 20
-87.288019
 30
0.0
 40
1.9939
  0
CIRCLE
  8
0
 62
0
 10
37.619673
 20
-87.288019
 30
0.0
 40
0.875
  0
CIRCLE
  8
0
 62
0
 10
53.653423
 20
-87.288019
 30
0.0
 40
0.875
  0
CIRCLE
  8
0
 62
0
 10
28.729673
 20
-84.748019
 30
0.0
 40
0.762
  0
CIRCLE
  8
0
 62
0
 10
35.079673
 20
-82.208019
 30
0.0
 40
0.762
  0
CIRCLE
  8
0
 62
0
 10
58.733423
 20
-87.288019
 30
0.0
 40
1.9939
  0
CIRCLE
  8
0
 62
0
 10
63.813423
 20
-87.288019
 30
0.0
 40
0.875
  0
CIRCLE
  8
0
 62
0
 10
72.703423
 20
-87.288019
 30
0.0
 40
0.875
  0
CIRCLE
  8
0
 62
0
 10
77.783423
 20
-87.288019
 30
0.0
 40
1.9939
  0
CIRCLE
  8
0
 62
0
 10
82.863423
 20
-87.288019
 30
0.0
 40
0.875
  0
CIRCLE
  8
0
 62
0
 10
54.923423
 20
-84.748019
 30
0.0
 40
0.762
  0
CIRCLE
  8
0
 62
0
 10
61.273423
 20
-82.208019
 30
0.0
 40
0.762
  0
CIRCLE
  8
0
 62
0
 10
73.973423
 20
-84.748019
 30
0.0
 40
0.762
  0
CIRCLE
  8
0
 62
0
 10
80.323423
 20
-82.208019
 30
0.0
 40
0.762
  0
CIRCLE
  8
0
 62
0
 10
102.548423
 20
-103.798019
 30
0.0
 40
0.762
  0
CIRCLE
  8
0
 62
0
 10
89.848423
 20
-101.258019
 30
0.0
 40
0.762
  0
CIRCLE
  8
0
 62
0
 10
121.598423
 20
-103.798019
 30
0.0
 40
0.762
  0
CIRCLE
  8
0
 62
0
 10
108.898423
 20
-101.258019
 30
0.0
 40
0.762
  0
CIRCLE
  8
0
 62
0
 10
127.948423
 20
-101.258019
 30
0.0
 40
0.762
  0
CIRCLE
  8
0
 62
0
 10
140.648423
 20
-103.798019
 30
0.0
 40
0.762
  0
CIRCLE
  8
0
 62
0
 10
146.998423
 20
-101.258019
 30
0.0
 40
0.762
  0
CIRCLE
  8
0
 62
0
 10
91.753423
 20
-87.288019
 30
0.0
 40
0.875
  0
CIRCLE
  8
0
 62
0
 10
96.833423
 20
-87.288019
 30
0.0
 40
1.9939
  0
CIRCLE
  8
0
 62
0
 10
101.913423
 20
-87.288019
 30
0.0
 40
0.875
  0
CIRCLE
  8
0
 62
0
 10
110.803423
 20
-87.288019
 30
0.0
 40
0.875
  0
CIRCLE
  8
0
 62
0
 10
115.883423
 20
-87.288019
 30
0.0
 40
1.9939
  0
CIRCLE
  8
0
 62
0
 10
120.963423
 20
-87.288019
 30
0.0
 40
0.875
  0
CIRCLE
  8
0
 62
0
 10
93.023423
 20
-84.748019
 30
0.0
 40
0.762
  0
CIRCLE
  8
0
 62
0
 10
99.373423
 20
-82.208019
 30
0.0
 40
0.762
  0
CIRCLE
  8
0
 62
0
 10
112.073423
 20
-84.748019
 30
0.0
 40
0.762
  0
CIRCLE
  8
0
 62
0
 10
118.423423
 20
-82.208019
 30
0.0
 40
0.762
  0
CIRCLE
  8
0
 62
0
 10
129.853423
 20
-87.288019
 30
0.0
 40
0.875
  0
CIRCLE
  8
0
 62
0
 10
134.933423
 20
-87.288019
 30
0.0
 40
1.9939
  0
CIRCLE
  8
0
 62
0
 10
140.013423
 20
-87.288019
 30
0.0
 40
0.875
  0
CIRCLE
  8
0
 62
0
 10
148.903423
 20
-87.288019
 30
0.0
 40
0.875
  0
CIRCLE
  8
0
 62
0
 10
153.983423
 20
-87.288019
 30
0.0
 40
1.9939
  0
CIRCLE
  8
0
 62
0
 10
131.123423
 20
-84.748019
 30
0.0
 40
0.762
  0
CIRCLE
  8
0
 62
0
 10
137.473423
 20
-82.208019
 30
0.0
 40
0.762
  0
CIRCLE
  8
0
 62
0
 10
150.173423
 20
-84.748019
 30
0.0
 40
0.762
  0
CIRCLE
  8
0
 62
0
 10
156.523423
 20
-82.208019
 30
0.0
 40
0.762
  0
CIRCLE
  8
0
 62
0
 10
196.845923
 20
-132.373018
 30
0.0
 40
1.524
  0
CIRCLE
  8
0
 62
0
 10
213.197173
 20
-125.388019
 30
0.0
 40
0.875
  0
CIRCLE
  8
0
 62
0
 10
218.277173
 20
-125.388019
 30
0.0
 40
1.9939
  0
CIRCLE
  8
0
 62
0
 10
223.357173
 20
-125.388019
 30
0.0
 40
0.875
  0
CIRCLE
  8
0
 62
0
 10
214.467173
 20
-122.848019
 30
0.0
 40
0.762
  0
CIRCLE
  8
0
 62
0
 10
220.817173
 20
-120.308019
 30
0.0
 40
0.762
  0
CIRCLE
  8
0
 62
0
 10
158.428423
 20
-106.338019
 30
0.0
 40
0.875
  0
CIRCLE
  8
0
 62
0
 10
163.508423
 20
-106.338019
 30
0.0
 40
1.9939
  0
CIRCLE
  8
0
 62
0
 10
168.588423
 20
-106.338019
 30
0.0
 40
0.875
  0
CIRCLE
  8
0
 62
0
 10
177.478423
 20
-106.338019
 30
0.0
 40
0.875
  0
CIRCLE
  8
0
 62
0
 10
182.558423
 20
-106.338019
 30
0.0
 40
1.9939
  0
CIRCLE
  8
0
 62
0
 10
187.638423
 20
-106.338019
 30
0.0
 40
0.875
  0
CIRCLE
  8
0
 62
0
 10
196.845923
 20
-117.133019
 30
0.0
 40
1.9939
  0
CIRCLE
  8
0
 62
0
 10
196.528423
 20
-106.338019
 30
0.0
 40
0.875
  0
CIRCLE
  8
0
 62
0
 10
201.608423
 20
-106.338019
 30
0.0
 40
1.9939
  0
CIRCLE
  8
0
 62
0
 10
206.688423
 20
-106.338019
 30
0.0
 40
0.875
  0
CIRCLE
  8
0
 62
0
 10
215.578423
 20
-106.338019
 30
0.0
 40
0.875
  0
CIRCLE
  8
0
 62
0
 10
220.658423
 20
-106.338019
 30
0.0
 40
1.9939
  0
CIRCLE
  8
0
 62
0
 10
225.738423
 20
-106.338019
 30
0.0
 40
0.875
  0
CIRCLE
  8
0
 62
0
 10
237.009673
 20
-125.388019
 30
0.0
 40
0.875
  0
CIRCLE
  8
0
 62
0
 10
242.089673
 20
-125.388019
 30
0.0
 40
1.9939
  0
CIRCLE
  8
0
 62
0
 10
238.279673
 20
-122.848019
 30
0.0
 40
0.762
  0
CIRCLE
  8
0
 62
0
 10
247.169673
 20
-125.388019
 30
0.0
 40
0.875
  0
CIRCLE
  8
0
 62
0
 10
260.822173
 20
-125.388019
 30
0.0
 40
0.875
  0
CIRCLE
  8
0
 62
0
 10
244.629673
 20
-120.308019
 30
0.0
 40
0.762
  0
CIRCLE
  8
0
 62
0
 10
265.902173
 20
-125.388019
 30
0.0
 40
1.9939
  0
CIRCLE
  8
0
 62
0
 10
270.982173
 20
-125.388019
 30
0.0
 40
0.875
  0
CIRCLE
  8
0
 62
0
 10
262.092173
 20
-122.848019
 30
0.0
 40
0.762
  0
CIRCLE
  8
0
 62
0
 10
268.442173
 20
-120.308019
 30
0.0
 40
0.762
  0
CIRCLE
  8
0
 62
0
 10
284.634673
 20
-125.388019
 30
0.0
 40
0.875
  0
CIRCLE
  8
0
 62
0
 10
289.714673
 20
-125.388019
 30
0.0
 40
1.9939
  0
CIRCLE
  8
0
 62
0
 10
294.794673
 20
-125.388019
 30
0.0
 40
0.875
  0
CIRCLE
  8
0
 62
0
 10
285.904673
 20
-122.848019
 30
0.0
 40
0.762
  0
CIRCLE
  8
0
 62
0
 10
292.254673
 20
-120.308019
 30
0.0
 40
0.762
  0
CIRCLE
  8
0
 62
0
 10
234.628423
 20
-106.338019
 30
0.0
 40
0.875
  0
CIRCLE
  8
0
 62
0
 10
239.708423
 20
-106.338019
 30
0.0
 40
1.9939
  0
CIRCLE
  8
0
 62
0
 10
244.788423
 20
-106.338019
 30
0.0
 40
0.875
  0
CIRCLE
  8
0
 62
0
 10
263.520923
 20
-113.323019
 30
0.0
 40
1.524
  0
CIRCLE
  8
0
 62
0
 10
287.333423
 20
-113.323019
 30
0.0
 40
1.524
  0
CIRCLE
  8
0
 62
0
 10
270.347173
 20
-106.338019
 30
0.0
 40
0.875
  0
CIRCLE
  8
0
 62
0
 10
275.427173
 20
-106.338019
 30
0.0
 40
1.9939
  0
CIRCLE
  8
0
 62
0
 10
280.507173
 20
-106.338019
 30
0.0
 40
0.875
  0
CIRCLE
  8
0
 62
0
 10
159.698423
 20
-103.798019
 30
0.0
 40
0.762
  0
CIRCLE
  8
0
 62
0
 10
166.048423
 20
-101.258019
 30
0.0
 40
0.762
  0
CIRCLE
  8
0
 62
0
 10
178.748423
 20
-103.798019
 30
0.0
 40
0.762
  0
CIRCLE
  8
0
 62
0
 10
185.098423
 20
-101.258019
 30
0.0
 40
0.762
  0
CIRCLE
  8
0
 62
0
 10
197.798423
 20
-103.798019
 30
0.0
 40
0.762
  0
CIRCLE
  8
0
 62
0
 10
204.148423
 20
-101.258019
 30
0.0
 40
0.762
  0
CIRCLE
  8
0
 62
0
 10
216.848423
 20
-103.798019
 30
0.0
 40
0.762
  0
CIRCLE
  8
0
 62
0
 10
223.198423
 20
-101.258019
 30
0.0
 40
0.762
  0
CIRCLE
  8
0
 62
0
 10
159.063423
 20
-87.288019
 30
0.0
 40
0.875
  0
CIRCLE
  8
0
 62
0
 10
167.953423
 20
-87.288019
 30
0.0
 40
0.875
  0
CIRCLE
  8
0
 62
0
 10
173.033423
 20
-87.288019
 30
0.0
 40
1.9939
  0
CIRCLE
  8
0
 62
0
 10
178.113423
 20
-87.288019
 30
0.0
 40
0.875
  0
CIRCLE
  8
0
 62
0
 10
187.003423
 20
-87.288019
 30
0.0
 40
0.875
  0
CIRCLE
  8
0
 62
0
 10
192.083423
 20
-87.288019
 30
0.0
 40
1.9939
  0
CIRCLE
  8
0
 62
0
 10
169.223423
 20
-84.748019
 30
0.0
 40
0.762
  0
CIRCLE
  8
0
 62
0
 10
175.573423
 20
-82.208019
 30
0.0
 40
0.762
  0
CIRCLE
  8
0
 62
0
 10
188.273423
 20
-84.748019
 30
0.0
 40
0.762
  0
CIRCLE
  8
0
 62
0
 10
197.163423
 20
-87.288019
 30
0.0
 40
0.875
  0
CIRCLE
  8
0
 62
0
 10
206.053423
 20
-87.288019
 30
0.0
 40
0.875
  0
CIRCLE
  8
0
 62
0
 10
211.133423
 20
-87.288019
 30
0.0
 40
1.9939
  0
CIRCLE
  8
0
 62
0
 10
216.213423
 20
-87.288019
 30
0.0
 40
0.875
  0
CIRCLE
  8
0
 62
0
 10
225.103423
 20
-87.288019
 30
0.0
 40
0.875
  0
CIRCLE
  8
0
 62
0
 10
194.623423
 20
-82.208019
 30
0.0
 40
0.762
  0
CIRCLE
  8
0
 62
0
 10
207.323423
 20
-84.748019
 30
0.0
 40
0.762
  0
CIRCLE
  8
0
 62
0
 10
213.673423
 20
-82.208019
 30
0.0
 40
0.762
  0
CIRCLE
  8
0
 62
0
 10
226.373423
 20
-84.748019
 30
0.0
 40
0.762
  0
CIRCLE
  8
0
 62
0
 10
235.898423
 20
-103.798019
 30
0.0
 40
0.762
  0
CIRCLE
  8
0
 62
0
 10
242.248423
 20
-101.258019
 30
0.0
 40
0.762
  0
CIRCLE
  8
0
 62
0
 10
271.617173
 20
-103.798019
 30
0.0
 40
0.762
  0
CIRCLE
  8
0
 62
0
 10
277.967173
 20
-101.258019
 30
0.0
 40
0.762
  0
CIRCLE
  8
0
 62
0
 10
263.520922
 20
-98.083019
 30
0.0
 40
1.9939
  0
CIRCLE
  8
0
 62
0
 10
268.283423
 20
-94.273019
 30
0.0
 40
1.524
  0
CIRCLE
  8
0
 62
0
 10
287.333424
 20
-98.083019
 30
0.0
 40
1.9939
  0
CIRCLE
  8
0
 62
0
 10
292.095923
 20
-94.273019
 30
0.0
 40
1.524
  0
CIRCLE
  8
0
 62
0
 10
230.183423
 20
-87.288019
 30
0.0
 40
1.9939
  0
CIRCLE
  8
0
 62
0
 10
235.263423
 20
-87.288019
 30
0.0
 40
0.875
  0
CIRCLE
  8
0
 62
0
 10
244.153423
 20
-87.288019
 30
0.0
 40
0.875
  0
CIRCLE
  8
0
 62
0
 10
249.233423
 20
-87.288019
 30
0.0
 40
1.9939
  0
CIRCLE
  8
0
 62
0
 10
254.313423
 20
-87.288019
 30
0.0
 40
0.875
  0
CIRCLE
  8
0
 62
0
 10
232.723423
 20
-82.208019
 30
0.0
 40
0.762
  0
CIRCLE
  8
0
 62
0
 10
245.423423
 20
-84.748019
 30
0.0
 40
0.762
  0
CIRCLE
  8
0
 62
0
 10
251.773423
 20
-82.208019
 30
0.0
 40
0.762
  0
CIRCLE
  8
0
 62
0
 10
275.109673
 20
-87.288019
 30
0.0
 40
0.875
  0
CIRCLE
  8
0
 62
0
 10
280.189673
 20
-87.288019
 30
0.0
 40
1.9939
  0
CIRCLE
  8
0
 62
0
 10
285.269673
 20
-87.288019
 30
0.0
 40
0.875
  0
CIRCLE
  8
0
 62
0
 10
276.379673
 20
-84.748019
 30
0.0
 40
0.762
  0
CIRCLE
  8
0
 62
0
 10
268.283422
 20
-79.033019
 30
0.0
 40
1.9939
  0
CIRCLE
  8
0
 62
0
 10
282.729673
 20
-82.208019
 30
0.0
 40
0.762
  0
CIRCLE
  8
0
 62
0
 10
292.095924
 20
-79.033019
 30
0.0
 40
1.9939
  0
CIRCLE
  8
0
 62
0
 10
25.078423
 20
-68.238019
 30
0.0
 40
0.875
  0
CIRCLE
  8
0
 62
0
 10
30.158423
 20
-68.238019
 30
0.0
 40
1.9939
  0
CIRCLE
  8
0
 62
0
 10
35.238423
 20
-68.238019
 30
0.0
 40
0.875
  0
CIRCLE
  8
0
 62
0
 10
26.348423
 20
-65.698019
 30
0.0
 40
0.762
  0
CIRCLE
  8
0
 62
0
 10
48.890923
 20
-68.238019
 30
0.0
 40
0.875
  0
CIRCLE
  8
0
 62
0
 10
53.970923
 20
-68.238019
 30
0.0
 40
1.9939
  0
CIRCLE
  8
0
 62
0
 10
50.160923
 20
-65.698019
 30
0.0
 40
0.762
  0
CIRCLE
  8
0
 62
0
 10
59.050923
 20
-68.238019
 30
0.0
 40
0.875
  0
CIRCLE
  8
0
 62
0
 10
67.940923
 20
-68.238019
 30
0.0
 40
0.875
  0
CIRCLE
  8
0
 62
0
 10
69.210923
 20
-65.698019
 30
0.0
 40
0.762
  0
CIRCLE
  8
0
 62
0
 10
73.020923
 20
-68.238019
 30
0.0
 40
1.9939
  0
CIRCLE
  8
0
 62
0
 10
78.100923
 20
-68.238019
 30
0.0
 40
0.875
  0
CIRCLE
  8
0
 62
0
 10
86.990923
 20
-68.238019
 30
0.0
 40
0.875
  0
CIRCLE
  8
0
 62
0
 10
88.260923
 20
-65.698019
 30
0.0
 40
0.762
  0
CIRCLE
  8
0
 62
0
 10
32.698423
 20
-63.158019
 30
0.0
 40
0.762
  0
CIRCLE
  8
0
 62
0
 10
56.510923
 20
-63.158019
 30
0.0
 40
0.762
  0
CIRCLE
  8
0
 62
0
 10
75.560923
 20
-63.158019
 30
0.0
 40
0.762
  0
CIRCLE
  8
0
 62
0
 10
92.070923
 20
-68.238019
 30
0.0
 40
1.9939
  0
CIRCLE
  8
0
 62
0
 10
97.150923
 20
-68.238019
 30
0.0
 40
0.875
  0
CIRCLE
  8
0
 62
0
 10
106.040923
 20
-68.238019
 30
0.0
 40
0.875
  0
CIRCLE
  8
0
 62
0
 10
111.120923
 20
-68.238019
 30
0.0
 40
1.9939
  0
CIRCLE
  8
0
 62
0
 10
116.200923
 20
-68.238019
 30
0.0
 40
0.875
  0
CIRCLE
  8
0
 62
0
 10
107.310923
 20
-65.698019
 30
0.0
 40
0.762
  0
CIRCLE
  8
0
 62
0
 10
125.090923
 20
-68.238019
 30
0.0
 40
0.875
  0
CIRCLE
  8
0
 62
0
 10
130.170923
 20
-68.238019
 30
0.0
 40
1.9939
  0
CIRCLE
  8
0
 62
0
 10
135.250923
 20
-68.238019
 30
0.0
 40
0.875
  0
CIRCLE
  8
0
 62
0
 10
126.360923
 20
-65.698019
 30
0.0
 40
0.762
  0
CIRCLE
  8
0
 62
0
 10
144.140923
 20
-68.238019
 30
0.0
 40
0.875
  0
CIRCLE
  8
0
 62
0
 10
149.220923
 20
-68.238019
 30
0.0
 40
1.9939
  0
CIRCLE
  8
0
 62
0
 10
154.300923
 20
-68.238019
 30
0.0
 40
0.875
  0
CIRCLE
  8
0
 62
0
 10
145.410923
 20
-65.698019
 30
0.0
 40
0.762
  0
CIRCLE
  8
0
 62
0
 10
94.610923
 20
-63.158019
 30
0.0
 40
0.762
  0
CIRCLE
  8
0
 62
0
 10
113.660923
 20
-63.158019
 30
0.0
 40
0.762
  0
CIRCLE
  8
0
 62
0
 10
132.710923
 20
-63.158019
 30
0.0
 40
0.762
  0
CIRCLE
  8
0
 62
0
 10
151.760923
 20
-63.158019
 30
0.0
 40
0.762
  0
CIRCLE
  8
0
 62
0
 10
20.315923
 20
-49.188019
 30
0.0
 40
0.875
  0
CIRCLE
  8
0
 62
0
 10
25.395923
 20
-49.188019
 30
0.0
 40
1.9939
  0
CIRCLE
  8
0
 62
0
 10
21.585923
 20
-46.648019
 30
0.0
 40
0.762
  0
CIRCLE
  8
0
 62
0
 10
30.475923
 20
-49.188019
 30
0.0
 40
0.875
  0
CIRCLE
  8
0
 62
0
 10
27.935923
 20
-44.108019
 30
0.0
 40
0.762
  0
CIRCLE
  8
0
 62
0
 10
39.365923
 20
-49.188019
 30
0.0
 40
0.875
  0
CIRCLE
  8
0
 62
0
 10
44.445923
 20
-49.188019
 30
0.0
 40
1.9939
  0
CIRCLE
  8
0
 62
0
 10
40.635923
 20
-46.648019
 30
0.0
 40
0.762
  0
CIRCLE
  8
0
 62
0
 10
49.525923
 20
-49.188019
 30
0.0
 40
0.875
  0
CIRCLE
  8
0
 62
0
 10
46.985923
 20
-44.108019
 30
0.0
 40
0.762
  0
CIRCLE
  8
0
 62
0
 10
21.43125
 20
-37.7825
 30
0.0
 40
0.5
  0
CIRCLE
  8
0
 62
0
 10
23.97125
 20
-37.7825
 30
0.0
 40
0.5
  0
CIRCLE
  8
0
 62
0
 10
26.51125
 20
-37.7825
 30
0.0
 40
0.5
  0
CIRCLE
  8
0
 62
0
 10
29.05125
 20
-37.7825
 30
0.0
 40
0.5
  0
CIRCLE
  8
0
 62
0
 10
31.59125
 20
-37.7825
 30
0.0
 40
0.5
  0
CIRCLE
  8
0
 62
0
 10
34.13125
 20
-37.7825
 30
0.0
 40
0.5
  0
CIRCLE
  8
0
 62
0
 10
36.67125
 20
-37.7825
 30
0.0
 40
0.5
  0
CIRCLE
  8
0
 62
0
 10
39.21125
 20
-37.7825
 30
0.0
 40
0.5
  0
CIRCLE
  8
0
 62
0
 10
41.75125
 20
-37.7825
 30
0.0
 40
0.5
  0
CIRCLE
  8
0
 62
0
 10
44.29125
 20
-37.7825
 30
0.0
 40
0.5
  0
CIRCLE
  8
0
 62
0
 10
46.83125
 20
-37.7825
 30
0.0
 40
0.5
  0
CIRCLE
  8
0
 62
0
 10
49.37125
 20
-37.7825
 30
0.0
 40
0.5
  0
CIRCLE
  8
0
 62
0
 10
58.415923
 20
-49.188019
 30
0.0
 40
0.875
  0
CIRCLE
  8
0
 62
0
 10
59.685923
 20
-46.648019
 30
0.0
 40
0.762
  0
CIRCLE
  8
0
 62
0
 10
63.495923
 20
-49.188019
 30
0.0
 40
1.9939
  0
CIRCLE
  8
0
 62
0
 10
68.575923
 20
-49.188019
 30
0.0
 40
0.875
  0
CIRCLE
  8
0
 62
0
 10
66.035923
 20
-44.108019
 30
0.0
 40
0.762
  0
CIRCLE
  8
0
 62
0
 10
77.465923
 20
-49.188019
 30
0.0
 40
0.875
  0
CIRCLE
  8
0
 62
0
 10
78.735923
 20
-46.648019
 30
0.0
 40
0.762
  0
CIRCLE
  8
0
 62
0
 10
82.545923
 20
-49.188019
 30
0.0
 40
1.9939
  0
CIRCLE
  8
0
 62
0
 10
87.625923
 20
-49.188019
 30
0.0
 40
0.875
  0
CIRCLE
  8
0
 62
0
 10
85.085923
 20
-44.108019
 30
0.0
 40
0.762
  0
CIRCLE
  8
0
 62
0
 10
21.43125
 20
-22.5425
 30
0.0
 40
0.5
  0
CIRCLE
  8
0
 62
0
 10
23.97125
 20
-22.5425
 30
0.0
 40
0.5
  0
CIRCLE
  8
0
 62
0
 10
26.51125
 20
-22.5425
 30
0.0
 40
0.5
  0
CIRCLE
  8
0
 62
0
 10
29.05125
 20
-22.5425
 30
0.0
 40
0.5
  0
CIRCLE
  8
0
 62
0
 10
31.59125
 20
-22.5425
 30
0.0
 40
0.5
  0
CIRCLE
  8
0
 62
0
 10
34.13125
 20
-22.5425
 30
0.0
 40
0.5
  0
CIRCLE
  8
0
 62
0
 10
36.67125
 20
-22.5425
 30
0.0
 40
0.5
  0
CIRCLE
  8
0
 62
0
 10
39.21125
 20
-22.5425
 30
0.0
 40
0.5
  0
CIRCLE
  8
0
 62
0
 10
41.75125
 20
-22.5425
 30
0.0
 40
0.5
  0
CIRCLE
  8
0
 62
0
 10
44.29125
 20
-22.5425
 30
0.0
 40
0.5
  0
CIRCLE
  8
0
 62
0
 10
46.83125
 20
-22.5425
 30
0.0
 40
0.5
  0
CIRCLE
  8
0
 62
0
 10
49.37125
 20
-22.5425
 30
0.0
 40
0.5
  0
CIRCLE
  8
0
 62
0
 10
96.515923
 20
-49.188019
 30
0.0
 40
0.875
  0
CIRCLE
  8
0
 62
0
 10
101.595923
 20
-49.188019
 30
0.0
 40
1.9939
  0
CIRCLE
  8
0
 62
0
 10
97.785923
 20
-46.648019
 30
0.0
 40
0.762
  0
CIRCLE
  8
0
 62
0
 10
104.135923
 20
-44.108019
 30
0.0
 40
0.762
  0
CIRCLE
  8
0
 62
0
 10
106.675923
 20
-49.188019
 30
0.0
 40
0.875
  0
CIRCLE
  8
0
 62
0
 10
115.565923
 20
-49.188019
 30
0.0
 40
0.875
  0
CIRCLE
  8
0
 62
0
 10
120.645923
 20
-49.188019
 30
0.0
 40
1.9939
  0
CIRCLE
  8
0
 62
0
 10
116.835923
 20
-46.648019
 30
0.0
 40
0.762
  0
CIRCLE
  8
0
 62
0
 10
123.185923
 20
-44.108019
 30
0.0
 40
0.762
  0
CIRCLE
  8
0
 62
0
 10
125.725923
 20
-49.188019
 30
0.0
 40
0.875
  0
CIRCLE
  8
0
 62
0
 10
134.615923
 20
-49.188019
 30
0.0
 40
0.875
  0
CIRCLE
  8
0
 62
0
 10
139.695923
 20
-49.188019
 30
0.0
 40
1.9939
  0
CIRCLE
  8
0
 62
0
 10
135.885923
 20
-46.648019
 30
0.0
 40
0.762
  0
CIRCLE
  8
0
 62
0
 10
144.775923
 20
-49.188019
 30
0.0
 40
0.875
  0
CIRCLE
  8
0
 62
0
 10
153.665923
 20
-49.188019
 30
0.0
 40
0.875
  0
CIRCLE
  8
0
 62
0
 10
154.935923
 20
-46.648019
 30
0.0
 40
0.762
  0
CIRCLE
  8
0
 62
0
 10
142.235923
 20
-44.108019
 30
0.0
 40
0.762
  0
CIRCLE
  8
0
 62
0
 10
163.190923
 20
-68.238019
 30
0.0
 40
0.875
  0
CIRCLE
  8
0
 62
0
 10
168.270923
 20
-68.238019
 30
0.0
 40
1.9939
  0
CIRCLE
  8
0
 62
0
 10
173.350923
 20
-68.238019
 30
0.0
 40
0.875
  0
CIRCLE
  8
0
 62
0
 10
164.460923
 20
-65.698019
 30
0.0
 40
0.762
  0
CIRCLE
  8
0
 62
0
 10
182.240923
 20
-68.238019
 30
0.0
 40
0.875
  0
CIRCLE
  8
0
 62
0
 10
187.320923
 20
-68.238019
 30
0.0
 40
1.9939
  0
CIRCLE
  8
0
 62
0
 10
192.400923
 20
-68.238019
 30
0.0
 40
0.875
  0
CIRCLE
  8
0
 62
0
 10
183.510923
 20
-65.698019
 30
0.0
 40
0.762
  0
CIRCLE
  8
0
 62
0
 10
201.290923
 20
-68.238019
 30
0.0
 40
0.875
  0
CIRCLE
  8
0
 62
0
 10
206.370923
 20
-68.238019
 30
0.0
 40
1.9939
  0
CIRCLE
  8
0
 62
0
 10
202.560923
 20
-65.698019
 30
0.0
 40
0.762
  0
CIRCLE
  8
0
 62
0
 10
211.450923
 20
-68.238019
 30
0.0
 40
0.875
  0
CIRCLE
  8
0
 62
0
 10
220.340923
 20
-68.238019
 30
0.0
 40
0.875
  0
CIRCLE
  8
0
 62
0
 10
225.420923
 20
-68.238019
 30
0.0
 40
1.9939
  0
CIRCLE
  8
0
 62
0
 10
221.610923
 20
-65.698019
 30
0.0
 40
0.762
  0
CIRCLE
  8
0
 62
0
 10
170.810923
 20
-63.158019
 30
0.0
 40
0.762
  0
CIRCLE
  8
0
 62
0
 10
189.860923
 20
-63.158019
 30
0.0
 40
0.762
  0
CIRCLE
  8
0
 62
0
 10
208.910923
 20
-63.158019
 30
0.0
 40
0.762
  0
CIRCLE
  8
0
 62
0
 10
230.500923
 20
-68.238019
 30
0.0
 40
0.875
  0
CIRCLE
  8
0
 62
0
 10
239.390923
 20
-68.238019
 30
0.0
 40
0.875
  0
CIRCLE
  8
0
 62
0
 10
244.470923
 20
-68.238019
 30
0.0
 40
1.9939
  0
CIRCLE
  8
0
 62
0
 10
240.660923
 20
-65.698019
 30
0.0
 40
0.762
  0
CIRCLE
  8
0
 62
0
 10
249.550923
 20
-68.238019
 30
0.0
 40
0.875
  0
CIRCLE
  8
0
 62
0
 10
258.440923
 20
-68.238019
 30
0.0
 40
0.875
  0
CIRCLE
  8
0
 62
0
 10
259.710923
 20
-65.698019
 30
0.0
 40
0.762
  0
CIRCLE
  8
0
 62
0
 10
263.520923
 20
-68.238019
 30
0.0
 40
1.9939
  0
CIRCLE
  8
0
 62
0
 10
268.600923
 20
-68.238019
 30
0.0
 40
0.875
  0
CIRCLE
  8
0
 62
0
 10
282.253423
 20
-68.238019
 30
0.0
 40
0.875
  0
CIRCLE
  8
0
 62
0
 10
287.333423
 20
-68.238019
 30
0.0
 40
1.9939
  0
CIRCLE
  8
0
 62
0
 10
292.413423
 20
-68.238019
 30
0.0
 40
0.875
  0
CIRCLE
  8
0
 62
0
 10
283.523423
 20
-65.698019
 30
0.0
 40
0.762
  0
CIRCLE
  8
0
 62
0
 10
227.960923
 20
-63.158019
 30
0.0
 40
0.762
  0
CIRCLE
  8
0
 62
0
 10
247.010923
 20
-63.158019
 30
0.0
 40
0.762
  0
CIRCLE
  8
0
 62
0
 10
266.060923
 20
-63.158019
 30
0.0
 40
0.762
  0
CIRCLE
  8
0
 62
0
 10
289.873423
 20
-63.158019
 30
0.0
 40
0.762
  0
CIRCLE
  8
0
 62
0
 10
270.664673
 20
-56.173019
 30
0.0
 40
1.524
  0
CIRCLE
  8
0
 62
0
 10
294.477173
 20
-56.173019
 30
0.0
 40
1.524
  0
CIRCLE
  8
0
 62
0
 10
158.745923
 20
-49.188019
 30
0.0
 40
1.9939
  0
CIRCLE
  8
0
 62
0
 10
163.825923
 20
-49.188019
 30
0.0
 40
0.875
  0
CIRCLE
  8
0
 62
0
 10
172.715923
 20
-49.188019
 30
0.0
 40
0.875
  0
CIRCLE
  8
0
 62
0
 10
173.985923
 20
-46.648019
 30
0.0
 40
0.762
  0
CIRCLE
  8
0
 62
0
 10
161.285923
 20
-44.108019
 30
0.0
 40
0.762
  0
CIRCLE
  8
0
 62
0
 10
177.795923
 20
-49.188019
 30
0.0
 40
1.9939
  0
CIRCLE
  8
0
 62
0
 10
182.875923
 20
-49.188019
 30
0.0
 40
0.875
  0
CIRCLE
  8
0
 62
0
 10
191.765923
 20
-49.188019
 30
0.0
 40
0.875
  0
CIRCLE
  8
0
 62
0
 10
180.335923
 20
-44.108019
 30
0.0
 40
0.762
  0
CIRCLE
  8
0
 62
0
 10
196.845923
 20
-49.188019
 30
0.0
 40
1.9939
  0
CIRCLE
  8
0
 62
0
 10
193.035923
 20
-46.648019
 30
0.0
 40
0.762
  0
CIRCLE
  8
0
 62
0
 10
201.925923
 20
-49.188019
 30
0.0
 40
0.875
  0
CIRCLE
  8
0
 62
0
 10
199.385923
 20
-44.108019
 30
0.0
 40
0.762
  0
CIRCLE
  8
0
 62
0
 10
210.815923
 20
-49.188019
 30
0.0
 40
0.875
  0
CIRCLE
  8
0
 62
0
 10
215.895923
 20
-49.188019
 30
0.0
 40
1.9939
  0
CIRCLE
  8
0
 62
0
 10
212.085923
 20
-46.648019
 30
0.0
 40
0.762
  0
CIRCLE
  8
0
 62
0
 10
220.975923
 20
-49.188019
 30
0.0
 40
0.875
  0
CIRCLE
  8
0
 62
0
 10
218.435923
 20
-44.108019
 30
0.0
 40
0.762
  0
CIRCLE
  8
0
 62
0
 10
229.865923
 20
-49.188019
 30
0.0
 40
0.875
  0
CIRCLE
  8
0
 62
0
 10
234.945923
 20
-49.188019
 30
0.0
 40
1.9939
  0
CIRCLE
  8
0
 62
0
 10
231.135923
 20
-46.648019
 30
0.0
 40
0.762
  0
CIRCLE
  8
0
 62
0
 10
240.025923
 20
-49.188019
 30
0.0
 40
0.875
  0
CIRCLE
  8
0
 62
0
 10
237.485923
 20
-44.108019
 30
0.0
 40
0.762
  0
CIRCLE
  8
0
 62
0
 10
248.915923
 20
-49.188019
 30
0.0
 40
0.875
  0
CIRCLE
  8
0
 62
0
 10
250.185923
 20
-46.648019
 30
0.0
 40
0.762
  0
CIRCLE
  8
0
 62
0
 10
253.995923
 20
-49.188019
 30
0.0
 40
1.9939
  0
CIRCLE
  8
0
 62
0
 10
259.075923
 20
-49.188019
 30
0.0
 40
0.875
  0
CIRCLE
  8
0
 62
0
 10
256.535923
 20
-44.108019
 30
0.0
 40
0.762
  0
CIRCLE
  8
0
 62
0
 10
277.490923
 20
-49.188019
 30
0.0
 40
0.875
  0
CIRCLE
  8
0
 62
0
 10
278.760923
 20
-46.648019
 30
0.0
 40
0.762
  0
CIRCLE
  8
0
 62
0
 10
282.570923
 20
-49.188019
 30
0.0
 40
1.9939
  0
CIRCLE
  8
0
 62
0
 10
287.650923
 20
-49.188019
 30
0.0
 40
0.875
  0
CIRCLE
  8
0
 62
0
 10
285.110923
 20
-44.108019
 30
0.0
 40
0.762
  0
CIRCLE
  8
0
 62
0
 10
270.664672
 20
-40.933019
 30
0.0
 40
1.9939
  0
CIRCLE
  8
0
 62
0
 10
294.477174
 20
-40.933019
 30
0.0
 40
1.9939
  0
ENDBLK
  0
ENDSEC
  0
SECTION
  2
ENTITIES
  0
INSERT
  2
FACEFEAT
  8
0
 62
0
 10
0.0
 20
0.0
 30
0.0
  0
ENDSEC
  0
EOF
