M48
; DRILL file {KiCad 9.0.2} date 2025-06-22T01:03:53-0400
; FORMAT={3:3/ absolute / metric / suppress leading zeros}
; #@! TF.CreationDate,2025-06-22T01:03:53-04:00
; #@! TF.GenerationSoftware,Kicad,Pcbnew,9.0.2
; #@! TF.FileFunction,NonPlated,1,2,NPTH
FMAT,2
METRIC,TZ
; #@! TA.AperFunction,NonPlated,NPTH,ComponentDrill
T1C0.650
; #@! TA.AperFunction,NonPlated,NPTH,ComponentDrill
T2C1.750
; #@! TA.AperFunction,NonPlated,NPTH,ComponentDrill
T3C3.988
%
G90
G05
T1
X85216Y-127575
X90996Y-127575
T2
X20316Y-49188
X22697Y-125388
X25078Y-68238
X27460Y-87288
X30476Y-49188
X32222Y-106338
X32857Y-125388
X35238Y-68238
X37620Y-87288
X39366Y-49188
X42382Y-106338
X46510Y-125388
X48891Y-68238
X49526Y-49188
X53653Y-87288
X56670Y-125388
X58416Y-49188
X59051Y-68238
X63178Y-106338
X63813Y-87288
X67941Y-68238
X68576Y-49188
X70322Y-125388
X72703Y-87288
X73338Y-106338
X77466Y-49188
X78101Y-68238
X80482Y-125388
X82228Y-106338
X82863Y-87288
X86991Y-68238
X87626Y-49188
X91753Y-87288
X92388Y-106338
X96516Y-49188
X97151Y-68238
X101278Y-106338
X101913Y-87288
X106041Y-68238
X106676Y-49188
X110803Y-87288
X111438Y-106338
X115566Y-49188
X116201Y-68238
X120328Y-106338
X120963Y-87288
X125091Y-68238
X125726Y-49188
X129853Y-87288
X130488Y-106338
X134616Y-49188
X135251Y-68238
X139378Y-106338
X140013Y-87288
X141760Y-125388
X144141Y-68238
X144776Y-49188
X148903Y-87288
X149538Y-106338
X151920Y-125388
X153666Y-49188
X154301Y-68238
X158428Y-106338
X159063Y-87288
X163191Y-68238
X163826Y-49188
X167953Y-87288
X168588Y-106338
X172716Y-49188
X173351Y-68238
X177478Y-106338
X178113Y-87288
X182241Y-68238
X182876Y-49188
X187003Y-87288
X187638Y-106338
X191766Y-49188
X192401Y-68238
X196528Y-106338
X197163Y-87288
X201291Y-68238
X201926Y-49188
X206053Y-87288
X206688Y-106338
X210816Y-49188
X211451Y-68238
X213197Y-125388
X215578Y-106338
X216213Y-87288
X220341Y-68238
X220976Y-49188
X223357Y-125388
X225103Y-87288
X225738Y-106338
X229866Y-49188
X230501Y-68238
X234628Y-106338
X235263Y-87288
X237010Y-125388
X239391Y-68238
X240026Y-49188
X244153Y-87288
X244788Y-106338
X247170Y-125388
X248916Y-49188
X249551Y-68238
X254313Y-87288
X258441Y-68238
X259076Y-49188
X260822Y-125388
X268601Y-68238
X270347Y-106338
X270982Y-125388
X275110Y-87288
X277491Y-49188
X280507Y-106338
X282253Y-68238
X284635Y-125388
X285270Y-87288
X287651Y-49188
X292413Y-68238
X294795Y-125388
T3
X25396Y-98083
X25396Y-49188
X27777Y-125388
X30158Y-68238
X32540Y-87288
X37302Y-106338
X44446Y-49188
X49208Y-98083
X51590Y-125388
X53971Y-68238
X58733Y-87288
X63496Y-49188
X68258Y-106338
X73021Y-68238
X75402Y-125388
X77783Y-87288
X82546Y-49188
X87308Y-106338
X92071Y-68238
X96833Y-87288
X96833Y-117133
X101596Y-49188
X106358Y-106338
X111121Y-68238
X115883Y-87288
X120646Y-49188
X125408Y-106338
X130171Y-68238
X134933Y-87288
X139696Y-49188
X144458Y-106338
X146840Y-125388
X149221Y-68238
X153983Y-87288
X158746Y-49188
X163508Y-106338
X168271Y-68238
X173033Y-87288
X177796Y-49188
X182558Y-106338
X187321Y-68238
X192083Y-87288
X196846Y-49188
X196846Y-117133
X201608Y-106338
X206371Y-68238
X211133Y-87288
X215896Y-49188
X218277Y-125388
X220658Y-106338
X225421Y-68238
X230183Y-87288
X234946Y-49188
X239708Y-106338
X242090Y-125388
X244471Y-68238
X249233Y-87288
X253996Y-49188
X263521Y-98083
X263521Y-68238
X265902Y-125388
X268283Y-79033
X270665Y-40933
X275427Y-106338
X280190Y-87288
X282571Y-49188
X287333Y-68238
X287333Y-98083
X289715Y-125388
X292096Y-79033
X294477Y-40933
M30
