M48
; DRILL file {KiCad 9.0.2} date 2025-06-22T01:03:53-0400
; FORMAT={3:3/ absolute / metric / suppress leading zeros}
; #@! TF.CreationDate,2025-06-22T01:03:53-04:00
; #@! TF.GenerationSoftware,Kicad,Pcbnew,9.0.2
; #@! TF.FileFunction,Plated,1,2,PTH
FMAT,2
METRIC,TZ
; #@! TA.AperFunction,Plated,PTH,ViaDrill
T1C0.300
; #@! TA.AperFunction,Plated,PTH,ComponentDrill
T2C0.600
; #@! TA.AperFunction,Plated,PTH,ComponentDrill
T3C1.000
; #@! TA.AperFunction,Plated,PTH,ComponentDrill
T4C1.524
; #@! TA.AperFunction,Plated,PTH,ComponentDrill
T5C3.048
%
G90
G05
T1
X33338Y-115888
X66675Y-118269
X84138Y-115094
X86519Y-127794
X87764Y-129472
X88362Y-128783
X89694Y-127794
X90489Y-124639
X92869Y-124619
X96293Y-128783
X97631Y-128588
X104775Y-115888
X123031Y-115094
X144463Y-114300
X158750Y-118269
X160652Y-110988
X166335Y-118269
X170656Y-124594
X170656Y-125394
X170656Y-126194
X170656Y-126994
X170656Y-127794
X170825Y-128644
X178594Y-110331
X182590Y-127766
X184911Y-128586
X185710Y-128615
X186531Y-123825
X187325Y-124619
X189706Y-110988
X191294Y-111125
X191294Y-113506
X192881Y-111125
X192881Y-113506
X193675Y-132556
X193681Y-111125
X193681Y-113506
X194469Y-128588
X196850Y-72231
X196850Y-75406
X201612Y-91281
X201612Y-96044
X202413Y-91281
X202413Y-96044
X215900Y-111125
X296069Y-76200
T3
X158115Y-115411
X160655Y-115411
X160655Y-130651
X163195Y-115411
X163195Y-130651
X165735Y-115411
X165735Y-130651
X168275Y-115411
X168275Y-130651
X170815Y-115411
X170815Y-130651
X173355Y-115411
X173355Y-130651
X175895Y-115411
X175895Y-130651
X178435Y-115411
X178435Y-130651
X180975Y-115411
X180975Y-130651
X183515Y-115411
X183515Y-130651
X186055Y-115411
X186055Y-130651
X188595Y-115411
X188595Y-117951
X188595Y-120491
X188595Y-123031
X188595Y-125571
X188595Y-128111
X188595Y-130651
T4
X21586Y-46648
X23967Y-122848
X26348Y-65698
X27936Y-44108
X28730Y-84748
X30317Y-120308
X32698Y-63158
X33492Y-103798
X35080Y-82208
X39842Y-101258
X40636Y-46648
X46986Y-44108
X47780Y-122848
X50161Y-65698
X54130Y-120308
X54923Y-84748
X56511Y-63158
X59686Y-46648
X61273Y-82208
X64448Y-103798
X66036Y-44108
X69211Y-65698
X70798Y-101258
X71592Y-122848
X73973Y-84748
X75561Y-63158
X77942Y-120308
X78736Y-46648
X80323Y-82208
X83498Y-103798
X85086Y-44108
X88261Y-65698
X89848Y-101258
X93023Y-84748
X94611Y-63158
X97786Y-46648
X99373Y-82208
X102548Y-103798
X104136Y-44108
X107311Y-65698
X108898Y-101258
X112073Y-84748
X113661Y-63158
X116836Y-46648
X118423Y-82208
X121598Y-103798
X123186Y-44108
X126361Y-65698
X127948Y-101258
X131123Y-84748
X132711Y-63158
X135886Y-46648
X137473Y-82208
X140648Y-103798
X142236Y-44108
X143030Y-122848
X145411Y-65698
X146998Y-101258
X149380Y-120308
X150173Y-84748
X151761Y-63158
X154936Y-46648
X156523Y-82208
X159698Y-103798
X161286Y-44108
X164461Y-65698
X166048Y-101258
X169223Y-84748
X170811Y-63158
X173986Y-46648
X175573Y-82208
X178748Y-103798
X180336Y-44108
X183511Y-65698
X185098Y-101258
X188273Y-84748
X189861Y-63158
X193036Y-46648
X194623Y-82208
X197798Y-103798
X199386Y-44108
X202561Y-65698
X204148Y-101258
X207323Y-84748
X208911Y-63158
X212086Y-46648
X213673Y-82208
X214467Y-122848
X216848Y-103798
X218436Y-44108
X220817Y-120308
X221611Y-65698
X223198Y-101258
X226373Y-84748
X227961Y-63158
X231136Y-46648
X232723Y-82208
X235898Y-103798
X237486Y-44108
X238280Y-122848
X240661Y-65698
X242248Y-101258
X244630Y-120308
X245423Y-84748
X247011Y-63158
X250186Y-46648
X251773Y-82208
X256536Y-44108
X259711Y-65698
X262092Y-122848
X266061Y-63158
X268442Y-120308
X271617Y-103798
X276380Y-84748
X277967Y-101258
X278761Y-46648
X282730Y-82208
X283523Y-65698
X285111Y-44108
X285905Y-122848
X289873Y-63158
X292255Y-120308
T5
X25396Y-113323
X49208Y-113323
X96833Y-132373
X196846Y-132373
X263521Y-113323
X268283Y-94273
X270665Y-56173
X287333Y-113323
X292096Y-94273
X294477Y-56173
T2
G00X83786Y-126495
M15
G01X83786Y-127595
M16
G05
G00X83786Y-130925
M15
G01X83786Y-131525
M16
G05
G00X92426Y-126495
M15
G01X92426Y-127595
M16
G05
G00X92426Y-130925
M15
G01X92426Y-131525
M16
G05
M30
